# xmcd
#
# Track frame offsets:
#	150
#	13210
#	26356
#	39490
#	51029
#	65587
#	77400
#	90907
#	103581
#	114682
#	127585
#	140863
#	153024
#	168124
#	181741
#	195298
#	208562
#	222154
#	235529
#	248437
#	262348
#
# Disc length: 3658 seconds
#
# Revision: 0
# Processed by: cddbd v1.5.2PL0 Copyright (c) Steve Scherf et al.
# Submitted via: audiograbber 1.83.01
#
DISCID=040e4815
DTITLE=Big Joe Turner - Blues Archive 10_CD1
DYEAR=1940
DGENRE=Blues
TTITLE0=Nobody In My Mind (1941)
TTITLE1=Somebody Got To Go (1941)
TTITLE2=Ice Man (1941)
TTITLE3=Chewed Up Grass (1941)
TTITLE4=Rocks In My Bed (1941)
TTITLE5=Blues On Central Avenue (1941)
TTITLE6=Goin' To Chicago Blues (1941)
TTITLE7=Sun Risin' Blues (1941)
TTITLE8=Blues In The Night (1942)
TTITLE9=Cry Baby Blues (1942)
TTITLE10=It's The Same Old Story (1944)
TTITLE11=Rebecca (1944)
TTITLE12=Little Gal's Blues (1944)
TTITLE13=I Got A Gal (For Every Day In The Week) (1944)
TTITLE14=S. K. Blues Part 1 (1945)
TTITLE15=S. K. Blues Part 2 (1945)
TTITLE16=Johnson And Turner Blues (1945)
TTITLE17=Watch That Jive (1945)
TTITLE18=Howlin' Winds (1945)
TTITLE19=Doggin' The Blues (Low Dog Blues) (1944)
TTITLE20=I Got My Discharge Papers (1946)
EXTD=
EXTT0=
EXTT1=
EXTT2=
EXTT3=
EXTT4=
EXTT5=
EXTT6=
EXTT7=
EXTT8=
EXTT9=
EXTT10=
EXTT11=
EXTT12=
EXTT13=
EXTT14=
EXTT15=
EXTT16=
EXTT17=
EXTT18=
EXTT19=
EXTT20=by cml Ledeburgh 2018
PLAYORDER=
